<?xml version="1.0" standalone="no"?>
<!DOCTYPE svg PUBLIC "-//W3C//DTD SVG 20010904//EN"
 "http://www.w3.org/TR/2001/REC-SVG-20010904/DTD/svg10.dtd">
<svg version="1.0" xmlns="http://www.w3.org/2000/svg"
 width="260.000000pt" height="260.000000pt" viewBox="0 0 260.000000 260.000000"
 preserveAspectRatio="xMidYMid meet">
<metadata>
Created by potrace 1.11, written by Peter Selinger 2001-2013
</metadata>
<g transform="translate(0.000000,260.000000) scale(0.100000,-0.100000)"
fill="#000000" stroke="none">
<path d="M650 2532 c0 -4 -24 -8 -52 -9 -102 -3 -206 -30 -261 -66 -15 -9 -27
-15 -27 -11 0 10 -71 -46 -115 -90 -22 -23 -39 -44 -37 -48 1 -5 -2 -8 -7 -8
-10 0 -48 -56 -53 -80 -2 -8 -8 -20 -14 -27 -13 -13 -54 -141 -54 -166 0 -9
-4 -18 -9 -21 -5 -3 -7 -19 -6 -36 1 -16 -2 -30 -7 -30 -9 0 -5 -369 5 -425 3
-16 8 -48 11 -70 3 -22 9 -51 12 -65 3 -14 8 -34 11 -45 2 -11 7 -36 9 -55 3
-19 8 -42 11 -50 4 -8 7 -24 8 -35 1 -11 4 -27 7 -35 3 -8 11 -35 19 -60 7
-25 17 -51 22 -57 5 -7 7 -13 4 -13 -4 0 1 -19 9 -42 9 -24 17 -47 18 -53 5
-19 18 -50 27 -68 5 -10 7 -22 4 -27 -4 -6 -1 -10 4 -10 6 0 10 -3 9 -8 -1 -6
8 -34 29 -82 3 -8 7 -17 7 -20 1 -3 21 -45 45 -95 25 -49 45 -92 45 -95 1 -3
11 -21 24 -41 12 -20 22 -39 22 -42 0 -3 11 -23 25 -44 14 -21 31 -47 38 -57
39 -61 102 -138 135 -167 60 -52 82 -69 90 -69 4 0 24 -8 43 -18 44 -22 154
-21 200 2 18 9 38 16 44 16 20 0 108 92 130 136 11 21 25 42 30 46 6 4 6 8 1
8 -5 0 -2 7 5 17 8 9 13 24 11 35 -2 10 2 18 8 18 7 0 10 7 7 15 -4 8 -2 17 3
20 12 7 13 65 2 65 -5 0 -21 -17 -37 -38 -41 -55 -90 -75 -178 -75 -66 0 -78
3 -125 34 -29 18 -52 40 -52 48 0 8 -3 12 -6 9 -5 -6 -54 38 -54 48 0 3 -18
32 -40 64 -22 32 -40 63 -40 69 0 5 -3 11 -8 13 -10 4 -89 167 -97 201 -4 15
-12 27 -18 27 -6 0 -7 3 -4 7 4 3 2 12 -4 20 -7 7 -13 21 -14 31 -1 9 -7 30
-13 46 -7 16 -14 38 -17 50 -2 11 -4 22 -6 24 -1 1 -2 5 -3 10 -1 4 -4 12 -8
17 -3 6 -8 24 -9 40 -2 17 -7 32 -10 35 -7 5 -18 53 -24 101 -1 15 -6 36 -9
47 -13 41 -18 68 -21 137 -2 39 -4 72 -5 75 -1 3 -2 8 -1 13 0 4 -4 7 -10 7
-5 0 -7 5 -4 10 4 6 8 50 11 98 3 48 6 96 8 107 9 63 20 106 27 111 5 3 7 10
3 15 -3 6 1 18 9 27 8 9 22 34 32 54 20 44 119 148 145 154 3 0 21 8 41 17 19
8 48 19 65 23 16 4 34 10 39 14 15 11 164 4 215 -9 25 -7 54 -14 66 -16 12 -1
35 -10 51 -19 17 -8 42 -17 55 -20 14 -2 34 -9 44 -14 71 -36 179 -48 232 -26
19 8 42 14 52 14 9 0 32 8 51 17 19 10 39 18 44 18 6 1 23 6 38 13 15 7 42 14
58 17 17 3 47 11 67 18 58 20 215 13 257 -12 6 -3 15 -6 20 -6 18 0 105 -47
105 -56 0 -5 4 -9 10 -9 16 0 78 -72 102 -120 13 -25 26 -47 29 -50 3 -3 9
-16 12 -30 3 -14 11 -43 17 -65 6 -22 12 -57 15 -78 2 -22 6 -41 9 -44 3 -4 1
-12 -5 -20 -6 -7 -7 -13 -2 -13 5 0 9 -36 8 -80 0 -44 -3 -80 -6 -80 -3 0 -5
-19 -4 -42 0 -24 -5 -62 -12 -86 -6 -24 -10 -52 -8 -63 2 -10 1 -19 -3 -19 -4
0 -9 -14 -10 -31 -1 -17 -6 -39 -11 -48 -5 -9 -7 -24 -6 -33 2 -10 0 -18 -5
-18 -7 0 -17 -40 -22 -92 -1 -10 -5 -18 -9 -18 -7 0 -22 -53 -19 -65 1 -3 -6
-17 -15 -31 -9 -13 -13 -29 -10 -34 3 -6 1 -10 -4 -10 -6 0 -11 -9 -11 -20 0
-11 -5 -20 -11 -20 -5 0 -7 -5 -4 -10 3 -6 -3 -24 -15 -40 -12 -16 -18 -34
-15 -40 3 -5 -1 -10 -10 -10 -9 0 -14 -4 -11 -9 6 -9 -51 -129 -65 -141 -4 -3
-9 -15 -13 -28 -4 -12 -11 -20 -16 -17 -4 3 -10 -6 -14 -18 -7 -29 -123 -157
-142 -157 -8 0 -14 -4 -14 -9 0 -29 -159 -34 -215 -7 -44 21 -85 60 -85 80 0
20 -37 27 -37 7 0 -9 4 -22 10 -28 5 -7 7 -13 4 -13 -4 0 0 -18 8 -39 7 -22
11 -42 8 -45 -4 -3 -1 -6 5 -6 7 0 11 -3 10 -7 -5 -18 46 -108 83 -148 32 -35
93 -75 119 -80 3 -1 16 -5 30 -9 41 -14 162 -13 167 1 3 7 9 11 13 8 4 -3 24
6 44 20 20 14 39 25 42 25 9 0 157 159 162 175 8 23 37 65 45 65 4 0 6 4 2 9
-3 5 -1 12 5 16 5 3 27 41 48 83 21 42 45 88 52 102 8 14 15 27 15 30 0 3 9
20 18 37 10 18 14 33 10 33 -5 0 -3 4 2 8 6 4 19 27 29 52 10 25 25 59 32 77
8 17 14 37 14 45 0 8 4 18 10 24 5 5 11 22 12 37 1 15 6 27 10 27 4 0 7 3 6 8
-1 4 5 27 12 52 17 59 18 59 29 100 5 19 16 58 24 87 8 28 12 54 10 57 -3 3
-1 11 5 18 10 13 20 61 27 128 1 19 4 35 5 35 7 0 22 144 25 231 1 45 6 87 10
94 5 9 4 11 -3 6 -15 -9 -15 -1 -1 26 6 11 7 18 2 15 -5 -3 -10 13 -10 36 0
54 -13 149 -22 162 -4 6 -7 24 -7 42 1 17 -2 29 -6 27 -3 -2 -10 10 -14 28 -7
36 -78 174 -100 198 -8 8 -28 30 -45 48 -31 34 -130 102 -149 102 -5 0 -10 5
-10 11 0 5 -4 8 -9 4 -5 -3 -12 -1 -15 4 -5 8 -46 20 -96 27 -14 2 -36 6 -50
10 -14 4 -29 6 -33 6 -4 -1 -17 3 -29 9 -11 6 -18 7 -15 2 3 -5 -20 -8 -51 -8
-31 1 -65 -3 -75 -7 -10 -5 -35 -10 -55 -12 -21 -1 -44 -6 -51 -10 -7 -5 -15
-5 -18 -2 -3 3 -13 0 -21 -6 -8 -7 -20 -13 -26 -13 -24 -2 -66 -18 -66 -25 0
-5 -8 -7 -17 -5 -10 1 -28 -3 -40 -11 -11 -7 -34 -16 -49 -18 -15 -3 -30 -9
-33 -13 -3 -4 -15 -9 -26 -10 -11 -1 -38 -5 -60 -9 -84 -15 -234 -6 -275 16
-12 6 -33 14 -47 16 -15 3 -36 10 -47 16 -12 7 -25 13 -31 14 -5 1 -38 11 -72
23 -34 12 -69 21 -78 21 -8 0 -15 4 -15 8 0 5 -15 9 -32 9 -18 0 -49 4 -68 8
-19 4 -43 7 -53 7 -9 0 -15 3 -12 9 4 5 1 9 -4 9 -6 0 -11 -3 -11 -8z"/>
<path d="M1086 1968 c-9 -5 -14 -13 -11 -19 4 -5 2 -9 -3 -9 -5 0 -8 -19 -7
-42 1 -24 -3 -49 -8 -55 -6 -8 -6 -13 0 -13 10 0 11 -65 1 -75 -4 -4 -2 -18 3
-32 6 -18 6 -30 -2 -39 -6 -8 -7 -14 -3 -14 5 0 9 -27 9 -60 0 -33 -3 -60 -8
-60 -4 0 -5 -4 -2 -10 8 -12 10 -12 -222 -14 -113 -1 -196 -5 -202 -11 -16
-17 -23 -75 -9 -75 10 0 10 -2 1 -8 -15 -10 -14 -111 1 -131 8 -11 8 -13 -1
-7 -17 9 -11 -190 6 -207 8 -8 72 -12 204 -13 234 -2 230 -2 222 -14 -3 -5 -2
-10 3 -10 10 0 10 -90 -1 -107 -5 -7 -4 -13 1 -13 12 0 12 -32 -1 -47 -5 -8
-6 -13 0 -13 10 0 11 -65 1 -75 -4 -4 -2 -18 3 -32 6 -17 6 -30 -1 -38 -8 -9
-8 -15 0 -20 5 -3 10 -16 10 -28 1 -50 11 -52 221 -52 154 0 200 3 213 14 9 8
15 20 12 28 -3 7 0 13 6 13 7 0 6 5 -2 15 -10 12 -10 15 1 15 9 0 10 3 2 11
-7 7 -8 21 -3 38 4 15 3 35 -2 44 -5 10 -5 17 -1 17 4 0 8 11 8 25 0 14 -4 25
-9 25 -5 0 -3 7 4 15 10 12 10 15 0 15 -10 0 -10 3 0 15 10 12 10 15 0 15 -10
0 -10 3 -1 14 8 9 8 16 2 20 -6 4 -7 15 -1 30 5 14 5 27 -1 33 -6 6 -4 16 5
28 13 18 29 19 207 20 195 1 238 6 240 28 1 7 2 97 3 200 1 177 0 189 -19 205
-18 16 -43 18 -222 18 -213 -1 -207 -2 -206 42 1 6 -4 12 -9 12 -6 0 -5 6 2
15 8 9 8 15 2 15 -7 0 -8 10 -2 30 6 20 5 30 -2 30 -6 0 -6 6 2 15 10 12 10
15 0 15 -10 0 -10 3 0 15 10 12 10 15 0 15 -9 0 -9 4 -2 13 6 7 7 18 2 27 -4
7 -5 23 0 35 4 12 4 29 -1 38 -6 9 -6 17 -2 17 10 0 9 62 -1 78 -4 7 -4 12 1
12 4 0 -1 6 -12 13 -24 14 -394 19 -419 5z"/>
</g>
</svg>
